      <svg
        width="22"
        height="22"
        viewBox="0 0 16 16"
        fill="none"
        xmlns="http://www.w3.org/2000/svg"
      >
        <path
          flip-rule="evenodd"
          clip-rule="evenodd"
          d="M6 2.0065C4.93913 2.0065 3.92172 2.42793 3.17157 3.17808C2.42143 3.92822 2 4.94564 2 6.0065C2 7.06737 2.42143 8.08479 3.17157 8.83493C3.92172 9.58508 4.93913 10.0065 6 10.0065C7.06087 10.0065 8.07828 9.58508 8.82843 8.83493C9.57857 8.08479 10 7.06737 10 6.0065C10 4.94564 9.57857 3.92822 8.82843 3.17808C8.07828 2.42793 7.06087 2.0065 6 2.0065ZM1.13461e-07 6.0065C-0.00012039 5.06221 0.222642 4.13122 0.650171 3.28925C1.0777 2.44727 1.69792 1.7181 2.4604 1.16103C3.22287 0.603957 4.10606 0.234716 5.03815 0.0833366C5.97023 -0.0680425 6.92488 0.00271481 7.82446 0.289854C8.72404 0.576993 9.54315 1.07241 10.2152 1.7358C10.8872 2.39919 11.3931 3.21184 11.6919 4.10764C11.9906 5.00344 12.0737 5.9571 11.9343 6.89106C11.795 7.82502 11.4372 8.7129 10.89 9.4825L15.707 14.2995C15.8892 14.4881 15.99 14.7407 15.9877 15.0029C15.9854 15.2651 15.8802 15.5159 15.6948 15.7013C15.5094 15.8867 15.2586 15.9919 14.9964 15.9942C14.7342 15.9965 14.4816 15.8957 14.293 15.7135L9.477 10.8975C8.57936 11.5358 7.52335 11.9147 6.42468 11.9926C5.326 12.0706 4.22707 11.8446 3.2483 11.3395C2.26953 10.8343 1.44869 10.0695 0.875723 9.12885C0.30276 8.18818 -0.000214051 7.10794 1.13461e-07 6.0065Z"
          fill="#545353"
        />
      </svg>

